<?xml version="1.0" standalone="no"?>
<!DOCTYPE svg PUBLIC "-//W3C//DTD SVG 20010904//EN"
 "http://www.w3.org/TR/2001/REC-SVG-20010904/DTD/svg10.dtd">
<svg version="1.0" xmlns="http://www.w3.org/2000/svg"
 width="520.000000pt" height="520.000000pt" viewBox="0 0 520.000000 520.000000"
 preserveAspectRatio="xMidYMid meet">
<metadata>
Created by potrace 1.11, written by Peter Selinger 2001-2013
</metadata>
<g transform="translate(0.000000,520.000000) scale(0.100000,-0.100000)"
fill="#000000" stroke="none">
<path d="M2500 4811 c-30 -10 -74 -28 -98 -40 -29 -15 -361 -339 -1018 -994
-881 -879 -976 -977 -999 -1029 -38 -88 -50 -174 -37 -255 24 -147 -18 -100
1047 -1164 1123 -1123 1017 -1034 1220 -1034 202 0 165 -28 774 584 1302 1306
1426 1433 1453 1492 40 83 53 174 38 257 -28 148 25 88 -1019 1135 -534 535
-980 974 -1010 994 -105 70 -238 91 -351 54z"/>
</g>
</svg>
